<svg xmlns="http://www.w3.org/2000/svg">
    <symbol viewBox="0 0 40 40" id="icon-cancel">
      <path fill="#f78f8f" d="M20 38.5C9.799 38.5 1.5 30.201 1.5 20S9.799 1.5 20 1.5 38.5 9.799 38.5 20 30.201 38.5 20 38.5z"/>
      <path fill="#c74343" d="M20 2c9.925 0 18 8.075 18 18s-8.075 18-18 18S2 29.925 2 20 10.075 2 20 2m0-1C9.507 1 1 9.507 1 20s8.507 19 19 19 19-8.507 19-19S30.493 1 20 1z"/>
      <path fill="#fff" d="M13.99 28.132l-2.122-2.122 14.143-14.142 2.12 2.122z"/>
      <path fill="#fff" d="M11.868 13.99l2.121-2.122L28.132 26.01l-2.121 2.122z"/>
    </symbol>
    <symbol viewBox="0 0 40 40" id="icon-cancel-2">
      <path fill="#f78f8f" stroke="#c74343" stroke-miterlimit="10" d="M20 1C9.507 1 1 9.507 1 20s8.507 19 19 19 19-8.507 19-19S30.493 1 20 1zM6 20c0-7.732 6.268-14 14-14 2.963 0 5.706.926 7.968 2.496L8.496 27.968A13.924 13.924 0 016 20zm14 14c-2.963 0-5.706-.926-7.968-2.496l19.472-19.472A13.924 13.924 0 0134 20c0 7.732-6.268 14-14 14z"/>
    </symbol>
    <symbol viewBox="0 0 40 40" id="icon-checked-2">
      <path fill="#8bb7f0" d="M4.769 37.5A2.272 2.272 0 012.5 35.231V4.769A2.272 2.272 0 014.769 2.5h30.462A2.272 2.272 0 0137.5 4.769v30.462a2.272 2.272 0 01-2.269 2.269H4.769z"/>
      <path fill="#4e7ab5" d="M35.231 3C36.206 3 37 3.794 37 4.769v30.462c0 .975-.794 1.769-1.769 1.769H4.769A1.772 1.772 0 013 35.231V4.769C3 3.794 3.794 3 4.769 3h30.462m0-1H4.769A2.77 2.77 0 002 4.769v30.462A2.77 2.77 0 004.769 38h30.462A2.77 2.77 0 0038 35.231V4.769A2.77 2.77 0 0035.231 2z"/>
      <path fill="none" stroke="#fff" stroke-miterlimit="10" stroke-width="3" d="M11 20.053l5.964 5.965 13.421-13.42"/>
    </symbol>
    <symbol viewBox="0 0 40 40" id="icon-contacts">
      <path fill="#8bb7f0" d="M6.5 37.5v-35H35a.5.5 0 01.5.5v34a.5.5 0 01-.5.5H6.5z"/>
      <path fill="#4e7ab5" d="M35 3v34H7V3h28m0-1H6v36h29a1 1 0 001-1V3a1 1 0 00-1-1z"/>
      <path fill="#4e7ab5" d="M9 38H5a1 1 0 01-1-1V3a1 1 0 011-1h4v36z"/>
      <path fill="#fff" d="M22 12a4 4 0 100 8 4 4 0 100-8zm6 15a6 6 0 10-12 0h12z"/>
    </symbol>
    <symbol viewBox="0 0 40 40" id="icon-delete">
      <path fill="#8b75a1" d="M24.3 5l.7 2h-9.9l.7-2h8.5m0-1h-8.6c-.4 0-.8.3-.9.7L14 7v1h12V7l-.8-2.3c-.1-.4-.5-.7-.9-.7z"/>
      <path fill="#dcd5f2" stroke="#8b75a1" stroke-miterlimit="10" d="M8 39.5c-.8 0-1.5-.7-1.5-1.5V25 10.5h27V38c0 .8-.7 1.5-1.5 1.5H8zM4.5 10.5V9c0-.8.7-1.5 1.5-1.5h28c.8 0 1.5.7 1.5 1.5v1.5h-31z"/>
      <path fill="#8b75a1" d="M24 13h1v24h-1zM15 13h1v24h-1zM10 13h1v24h-1zM29 13h1v24h-1z"/>
    </symbol>
    <symbol viewBox="0 0 40 40" id="icon-delete-sign">
      <path fill="#f78f8f" d="M21 24.15L8.857 36.293l-4.15-4.15L16.85 20 4.707 7.857l4.15-4.15L21 15.85 33.143 3.707l4.15 4.15L25.15 20l12.143 12.143-4.15 4.15z"/>
      <path fill="#c74343" d="M33.143 4.414l3.443 3.443L25.15 19.293l-.707.707.707.707 11.436 11.436-3.443 3.443L21.707 24.15 21 23.443l-.707.707L8.857 35.586l-3.443-3.443L16.85 20.707l.707-.707-.707-.707L5.414 7.857l3.443-3.443L20.293 15.85l.707.707.707-.707L33.143 4.414m0-1.414L21 15.143 8.857 3 4 7.857 16.143 20 4 32.143 8.857 37 21 24.857 33.143 37 38 32.143 25.857 20 38 7.857 33.143 3z"/>
    </symbol>
    <symbol viewBox="0 0 40 40" id="icon-edit">
      <path fill="#f5ce85" d="M5.982 29.309l2.589-2.59 5.047 4.396-2.903 2.904-8.262 3.528z"/>
      <path fill="#967a44" d="M8.595 27.403l4.291 3.737-2.457 2.457-7.026 3.001 3.001-7.003 2.191-2.192m-.047-1.367L5.56 29.024l-4.059 9.474L11 34.44l3.351-3.351-5.803-5.053z"/>
      <path fill="#36404d" d="M3.805 33.13L1.504 38.5l5.384-2.299z"/>
      <path fill="#f78f8f" d="M30.062 5.215L32.3 2.978C32.931 2.347 33.769 2 34.66 2s1.729.347 2.36.978a3.341 3.341 0 010 4.721l-2.237 2.237-4.721-4.721z"/>
      <path fill="#c74343" d="M34.66 2.5a2.82 2.82 0 012.007.831 2.84 2.84 0 010 4.014l-1.884 1.884-4.013-4.014 1.884-1.884A2.816 2.816 0 0134.66 2.5m0-1c-.982 0-1.965.375-2.714 1.124l-2.591 2.591 5.428 5.428 2.591-2.591a3.838 3.838 0 000-5.428A3.826 3.826 0 0034.66 1.5z"/>
      <path fill="#ffeea3" d="M11.346 33.388a1.777 1.777 0 00-.282-.454c-.31-.363-.749-.584-1.31-.661-.2-1.267-1.206-1.803-1.989-1.964-.132-.864-.649-1.342-1.201-1.582l21.49-21.503 4.721 4.721-21.429 21.443z"/>
      <path fill="#ba9b48" d="M28.054 7.931l4.014 4.014-20.637 20.649c-.242-.278-.638-.59-1.261-.748-.306-1.078-1.155-1.685-1.983-1.943a2.454 2.454 0 00-.821-1.272l20.688-20.7m-.001-1.414L5.56 29.023h.021c.197 0 1.715.054 1.715 1.731 0 0 1.993.062 1.993 1.99 1.982 0 1.71 1.697 1.71 1.697l22.482-22.495-5.428-5.429z"/>
      <g>
        <path fill="#d9e7f5" d="M27.562 7.714l3.944-3.945 4.722 4.72-3.943 3.946z"/>
        <path fill="#788b9c" d="M31.507 4.477l4.014 4.014-3.237 3.237-4.014-4.014 3.237-3.237m0-1.414l-4.651 4.651 5.428 5.428 4.651-4.651-5.428-5.428z"/>
      </g>
    </symbol>
    <symbol viewBox="0 0 40 40" id="icon-facebook">
      <path fill="#8bb7f0" d="M2.5 2.5h35v35h-35z"/>
      <path fill="#4e7ab5" d="M37 3v34H3V3h34m1-1H2v36h36V2z"/>
      <path fill="#fff" d="M27 37V24h4.93l.698-5H27v-3.384c0-1.568.702-2.636 2.95-2.636l3.05-.001V8.225c-.496-.066-2.381-.213-4.361-.213-4.134 0-6.639 2.523-6.639 7.157V19h-5v5h5v13h5z"/>
    </symbol>
    <symbol viewBox="0 0 40 40" id="icon-file">
      <path fill="#fff" d="M6.5 37.5v-35h18.293l8.707 8.707V37.5z"/>
      <path fill="#788b9c" d="M24.586 3L33 11.414V37H7V3h17.586M25 2H6v36h28V11l-9-9z"/>
      <path fill="#fff" d="M24.5 11.5v-9h.293l8.707 8.707v.293z"/>
      <path fill="#788b9c" d="M25 3.414L32.586 11H25V3.414M25 2h-1v10h10v-1l-9-9z"/>
    </symbol>
    <symbol viewBox="0 0 40 40" id="icon-home">
      <path fill="#dbf2ff" d="M3.5 38.5V13.3L20 3.6l16.5 9.7v25.2h-33z"/>
      <path fill="#b5ddf5" d="M4 34h32.3v4H4v-4z"/>
      <path fill="#7496c4" d="M20 4.2l16 9.4V38H4V13.6l16-9.4M20 3L3 13v26h34V13L20 3z"/>
      <path fill="#f78f8f" d="M20 4.6L1.5 16v-3.1L20 1.6l18.5 11.3V16L20 4.6z"/>
      <path fill="#c74343" d="M20 2.2l18 11v1.9L20.5 4.4l-.5-.3-.5.3L2 15.1v-1.9l18-11M20 1L1 12.6v4.2L20 5.2l19 11.6v-4.2L20 1z"/>
      <path fill="#ffc49c" d="M14.5 21.5h11v17h-11v-17z"/>
      <path fill="#a16a4a" d="M25 22v16H15V22h10m1-1H14v18h12V21z"/>
      <path fill="#a16a4a" d="M23 30c-.6 0-1 .4-1 1s.4 1 1 1 1-.4 1-1-.4-1-1-1z"/>
    </symbol>
    <symbol viewBox="0 0 40 40" id="icon-home-2">
      <path fill="#dbf2ff" d="M3.5 38.5V13.286L19.998 3.58 36.5 13.286V38.5z"/>
      <path fill="#7496c4" d="M19.998 4.16L36 13.572V38H4V13.572L19.998 4.16m0-1.16L3 13v26h34V13L19.998 3z"/>
      <path fill="#b5ddf5" d="M4 34h32v4H4z"/>
      <path fill="#f78f8f" d="M19.998 4.645L1.5 15.955v-3.059l18.498-11.31L38.5 12.896v3.059z"/>
      <path fill="#c74343" d="M19.998 2.172L38 13.176v1.887L20.519 4.378l-.522-.319-.522.319L2 15.063v-1.887L19.998 2.172m0-1.172L1 12.615v4.231L19.998 5.231 39 16.846v-4.231L19.998 1z"/>
      <path fill="#ffc49c" d="M14.5 21.5h11v17h-11z"/>
      <path fill="#a16a4a" d="M25 22v16H15V22h10m1-1H14v18h12V21z"/>
      <path fill="#a16a4a" d="M23 30a1 1 0 100 2 1 1 0 100-2z"/>
    </symbol>
    <symbol viewBox="0 0 40 40" id="icon-idea">
      <path fill="#ffeea3" d="M14.5 29.833V28c0-1.914-1.168-3.76-2.52-5.897-1.631-2.578-3.48-5.5-3.48-9.103C8.5 6.659 13.659 1.5 20 1.5S31.5 6.659 31.5 13c0 3.603-1.849 6.525-3.48 9.103C26.668 24.24 25.5 26.086 25.5 28v1.833h-11z"/>
      <path fill="#ba9b48" d="M20 2c6.065 0 11 4.935 11 11 0 3.458-1.808 6.315-3.402 8.835C26.262 23.947 25 25.941 25 28v1.333H15V28c0-2.059-1.262-4.053-2.598-6.165C10.808 19.315 9 16.458 9 13 9 6.935 13.935 2 20 2m0-1C13.373 1 8 6.373 8 13c0 6.667 6 10.958 6 15v2.333h12V28c0-4.042 6-8.333 6-15 0-6.627-5.373-12-12-12z"/>
      <path fill="#fff" d="M22.714 11.335a1.88 1.88 0 011.329 3.207l-1.75 1.75-.293.294V29h-4V16.586l-.293-.293-1.75-1.75a1.88 1.88 0 012.658-2.657l.679.679.706.706.707-.707.679-.679c.355-.354.826-.55 1.328-.55m0-1a2.87 2.87 0 00-2.036.843l-.678.679-.679-.679a2.87 2.87 0 00-2.036-.843 2.879 2.879 0 00-2.036 4.914L17 17v13h6V17l1.75-1.75a2.879 2.879 0 00-2.036-4.915z"/>
      <path fill="#8b75a1" d="M20 31a4 4 0 100 8 4 4 0 100-8z"/>
      <path fill="#dcd5f2" d="M17 36.5a2.503 2.503 0 01-2.5-2.5v-5.5h11V34c0 1.378-1.122 2.5-2.5 2.5h-6z"/>
      <path fill="#8b75a1" d="M25 29v5c0 1.103-.897 2-2 2h-6c-1.103 0-2-.897-2-2v-5h10m1-1H14v6a3 3 0 003 3h6a3 3 0 003-3v-6z"/>
      <path fill="#8b75a1" d="M19 34h6.488v1H19zm-4.44 0H17v1h-2.44zM19 32h7v1h-7zm-5 0h3v1h-3zm5-2h7v1h-7zm-5 0h3v1h-3z"/>
    </symbol>
    <symbol viewBox="0 0 40 40" id="icon-info">
      <path fill="#8bb7f0" d="M20 38.5C9.799 38.5 1.5 30.201 1.5 20S9.799 1.5 20 1.5 38.5 9.799 38.5 20 30.201 38.5 20 38.5z"/>
      <path fill="#4e7ab5" d="M20 2c9.925 0 18 8.075 18 18s-8.075 18-18 18S2 29.925 2 20 10.075 2 20 2m0-1C9.507 1 1 9.507 1 20s8.507 19 19 19 19-8.507 19-19S30.493 1 20 1z"/>
      <path fill="#fff" d="M20 10a2 2 0 100 4 2 2 0 100-4zM22 28V16h-5v1h1v11h-1v1h6v-1z"/>
    </symbol>
    <symbol viewBox="0 0 40 40" id="icon-instagram-new">
      <path fill="#8585cc" d="M30.5 38.5a8 8 0 008-8v-21a8 8 0 00-8-8h-21a8 8 0 00-8 8v21a8 8 0 008 8h21z"/>
      <path fill="#8d8dd8" d="M3.4 4.331A7.964 7.964 0 001.5 9.5v21a8 8 0 008 8h21a8 8 0 008-8v-21c0-.503-.052-.992-.141-1.469C32.135 4.22 24.832 2 17 2c-4.771 0-9.343.832-13.6 2.331z"/>
      <path fill="#bd82f4" d="M1.505 9.404c-.001.033-.005.064-.005.096v21a8 8 0 008 8h21a8 8 0 008-8V12.897A36.816 36.816 0 0017 6 36.848 36.848 0 001.505 9.404z"/>
      <path fill="#ed73f4" d="M1.5 13.88V30.5a8 8 0 008 8h21a8 8 0 008-8V17.981C32.724 13.013 25.217 10 17 10a32.835 32.835 0 00-15.5 3.88z"/>
      <path fill="#f97dcd" d="M17 14a28.84 28.84 0 00-15.5 4.509V30.5a8 8 0 008 8h21a8 8 0 008-8v-6.935C33.194 17.698 25.534 14 17 14z"/>
      <path fill="#fc9c95" d="M17 18c-5.861 0-11.237 2.033-15.5 5.411V30.5a8 8 0 008 8h21a8 8 0 008-8v-.238C34.143 22.925 26.152 18 17 18z"/>
      <path fill="#ffac99" d="M17 22c-6.145 0-11.66 2.651-15.5 6.859V30.5a8 8 0 008 8h21a7.983 7.983 0 006.136-2.87C33.648 27.674 25.999 22 17 22z"/>
      <path fill="#ffc49c" d="M30.5 38.5c.957 0 1.87-.177 2.721-.485C31.087 31.065 24.649 26 17 26c-6.186 0-11.592 3.309-14.566 8.248A7.996 7.996 0 009.5 38.5h21z"/>
      <path fill="#ffde8d" d="M17 30c-5.137 0-9.573 2.984-11.684 7.309A7.946 7.946 0 009.5 38.5h19.683C27.35 33.542 22.595 30 17 30z"/>
      <path fill="#fff69f" d="M17 34c-3.319 0-6.193 1.813-7.753 4.487.085.003.168.013.253.013h15.26C23.203 35.818 20.324 34 17 34z"/>
      <path fill="#8b75a1" d="M31 2c3.86 0 7 3.14 7 7v22c0 3.86-3.14 7-7 7H9c-3.86 0-7-3.14-7-7V9c0-3.86 3.14-7 7-7h22m0-1H9a8 8 0 00-8 8v22a8 8 0 008 8h22a8 8 0 008-8V9a8 8 0 00-8-8z"/>
      <path fill="#fff" d="M27.5 11a1.5 1.5 0 100 3 1.5 1.5 0 100-3z"/>
      <path fill="none" stroke="#fff" stroke-miterlimit="10" stroke-width="2" d="M20 14a6 6 0 100 12 6 6 0 100-12z"/>
      <path fill="none" stroke="#fff" stroke-miterlimit="10" stroke-width="2" d="M33 14.5A7.5 7.5 0 0025.5 7h-11A7.5 7.5 0 007 14.5v11a7.5 7.5 0 007.5 7.5h11a7.5 7.5 0 007.5-7.5v-11z"/>
    </symbol>
    <symbol viewBox="0 0 40 40" id="icon-key">
      <path fill="#f5ce85" d="M1.566 35.793l1.408-4.564 11.824-11.825-.592-.591c-.419-.418-.648-.974-.648-1.565s.229-1.147.648-1.566l.961-.962-.025-.238a11.694 11.694 0 01-.071-1.267c0-6.459 5.255-11.714 11.714-11.714l.333.005c6.104.168 11.208 5.272 11.377 11.376a11.626 11.626 0 01-3.312 8.5 11.62 11.62 0 01-8.397 3.547c-.408 0-.822-.023-1.268-.071l-.238-.026-.961.961a2.203 2.203 0 01-1.566.648c-.591 0-1.147-.23-1.565-.648l-.592-.592-2.299 2.299H14.5v3.797L13.297 32.5H9.5v3.797l-.738.738-4.553 1.398-2.643-2.64zM26.971 5.5a7.475 7.475 0 00-5.324 2.206l-.354.354 10.648 10.648.354-.354c1.422-1.422 2.205-3.313 2.205-5.324s-.783-3.902-2.205-5.324A7.477 7.477 0 0026.971 5.5z"/>
      <path fill="#967a44" d="M26.786 2c.106 0 .212.001.318.004 5.844.162 10.73 5.047 10.891 10.891a11.134 11.134 0 01-3.17 8.137 11.126 11.126 0 01-9.253 3.328l-.476-.051-.338.338-.792.792a1.702 1.702 0 01-1.212.502c-.458 0-.888-.178-1.212-.502l-.238-.238-.707-.707-.707.707L18.09 27H14v4.09l-.91.91H9v4.09l-.504.504-4.147 1.274-2.216-2.215 1.282-4.158 11.383-11.383.707-.707-.707-.707-.238-.238c-.324-.324-.502-.754-.502-1.212s.178-.888.502-1.212l.792-.792.338-.338-.051-.476a11.238 11.238 0 01-.068-1.214C15.571 7.031 20.602 2 26.786 2m5.155 17.414l.707-.707C34.165 17.191 35 15.174 35 13.029s-.835-4.161-2.352-5.678C31.132 5.835 29.115 5 26.971 5s-4.161.835-5.678 2.352l-.707.707.707.707 9.941 9.941.707.707M26.786 1C20.04 1 14.571 6.468 14.571 13.214c0 .447.027.887.074 1.321l-.792.792a2.715 2.715 0 000 3.839l.238.238L2.533 30.963 1 35.933 4.068 39l4.96-1.524.972-.972V33h3.504L15 31.504V28h3.504l2.091-2.091.238.238c.53.53 1.225.795 1.919.795.695 0 1.389-.265 1.919-.795l.792-.792c.434.047.874.074 1.321.074 6.861 0 12.401-5.657 12.209-12.561-.177-6.374-5.49-11.687-11.863-11.863-.114-.003-.23-.005-.344-.005zm5.155 17L22 8.059C23.373 6.686 25.172 6 26.971 6s3.598.686 4.971 2.059A7.03 7.03 0 0131.941 18z"/>
      <path fill="#dbb065" d="M5.262 32.673l11.154-11.155.707.707L5.97 33.38z"/>
      <path fill="#967a44" d="M14.599 19.92l.707-.707 5.321 5.322-.707.707z"/>
    </symbol>
    <symbol viewBox="0 0 40 40" id="icon-linkedin">
      <path fill="#8bb7f0" d="M2.5 2.5h35v35h-35z"/>
      <path fill="#4e7ab5" d="M37 3v34H3V3h34m1-1H2v36h36V2z"/>
      <path fill="#fff" d="M8 16.077h5.538V32H8zm2.769-1.615C9.108 14.462 8 13.285 8 11.831s1.108-2.562 2.769-2.562 2.7 1.108 2.769 2.562c0 1.454-1.038 2.631-2.769 2.631zM32.027 32h-5.468v-8.885c0-.615-.068-2.734-2.392-2.734-2.05 0-2.392 1.982-2.392 2.734V32h-5.468V16.281h5.468V18.4s1.094-2.119 4.306-2.119c3.281 0 5.946 2.255 5.946 6.834V32z"/>
    </symbol>
    <symbol viewBox="0 0 40 40" id="icon-lock">
      <path fill="none" stroke="#66798f" stroke-miterlimit="10" stroke-width="2" d="M30 17.714V12c0-5.523-4.477-10-10-10S10 6.477 10 12v5.714"/>
      <path fill="#f5ce85" d="M2.5 37.5V19c0-1.93 1.57-3.5 3.5-3.5h28c1.93 0 3.5 1.57 3.5 3.5v18.5h-35z"/>
      <path fill="#967a44" d="M34 16c1.654 0 3 1.346 3 3v18H3V19c0-1.654 1.346-3 3-3h28m0-1H6a4 4 0 00-4 4v19h36V19a4 4 0 00-4-4z"/>
      <path fill="#ffeea3" d="M3 31h34v3H3zm0-6h34v3H3zm0-6h34v3H3z"/>
    </symbol>
    <symbol viewBox="0 0 40 40" id="icon-menu">
      <path fill="#c2e8ff" stroke="#7496c4" stroke-miterlimit="10" d="M1.5 18.5h37v3h-37v-3zM1.5 8.5h37v3h-37v-3zM1.5 28.5h37v3h-37v-3z"/>
    </symbol>
    <symbol viewBox="0 0 40 40" id="icon-menu-2">
      <path fill="#c2e8ff" d="M1.5 18.5h37v3h-37z"/>
      <path fill="#7496c4" d="M38 19v2H2v-2h36m1-1H1v4h38v-4z"/>
      <path fill="#c2e8ff" d="M1.5 8.5h37v3h-37z"/>
      <path fill="#7496c4" d="M38 9v2H2V9h36m1-1H1v4h38V8z"/>
      <path fill="#c2e8ff" d="M1.5 28.5h37v3h-37z"/>
      <path fill="#7496c4" d="M38 29v2H2v-2h36m1-1H1v4h38v-4z"/>
    </symbol>
    <symbol viewBox="0 0 40 40" id="icon-music">
      <path fill="#8bb7f0" d="M9 37.5c-3.584 0-6.5-2.916-6.5-6.5s2.916-6.5 6.5-6.5a6.43 6.43 0 012.785.634l.715.34V5.429l25-3.846V29c0 3.584-2.916 6.5-6.5 6.5s-6.5-2.916-6.5-6.5 2.916-6.5 6.5-6.5a6.43 6.43 0 012.785.634l.715.34V11.023l-19 2.931V31c0 3.584-2.916 6.5-6.5 6.5z"/>
      <path fill="#4e7ab5" d="M37 2.166V29c0 3.308-2.692 6-6 6s-6-2.692-6-6 2.692-6 6-6a5.93 5.93 0 012.57.586l1.43.68V10.441l-1.152.178-18 2.776-.848.13V31c0 3.308-2.692 6-6 6s-6-2.692-6-6 2.692-6 6-6a5.93 5.93 0 012.57.586l1.43.68V5.858l24-3.692M38 1L12 5v19.683A6.962 6.962 0 009 24a7 7 0 107 7V14.383l18-2.776v11.076A6.962 6.962 0 0031 22a7 7 0 107 7V1z"/>
    </symbol>
    <symbol viewBox="0 0 40 40" id="icon-news">
      <path fill="#e1ebf2" d="M22.159 38.5A5.497 5.497 0 0024.5 34V5.5h13V34c0 2.481-2.019 4.5-4.5 4.5H22.159z"/>
      <path fill="#788b9c" d="M37 6v28c0 2.206-1.794 4-4 4h-9.532A5.976 5.976 0 0025 34V6h12m1-1H24v29a5 5 0 01-5 5h14a5 5 0 005-5V5z"/>
      <path fill="#fff" d="M7 38.5A4.505 4.505 0 012.5 34V1.5h26V34a4.506 4.506 0 004 4.472v.028H7z"/>
      <path fill="#788b9c" d="M28 2v32c0 1.634.788 3.087 2.003 4H7c-2.206 0-4-1.794-4-4V2h25m1-1H2v33a5 5 0 005 5h26v-1a4 4 0 01-4-4V1z"/>
      <path fill="#788b9c" d="M7 6h17v3H7zm0 6h7v1H7zm0 3h7v1H7zm0 3h7v1H7zm0 3h7v1H7zm0 3h7v1H7zm0 3h7v1H7zm0 3h7v1H7zm0 3h7v1H7zm22-22h5v1h-5zm0 3h5v1h-5zm0 3h5v1h-5zm0 3h5v1h-5zm0 3h5v1h-5zm0 3h5v1h-5zm0 3h5v1h-5zm0 3h5v1h-5zM17 12h7v1h-7zm0 3h7v1h-7zm0 3h7v1h-7zm0 3h7v1h-7zm0 3h7v1h-7zm0 3h7v1h-7zm0 3h7v1h-7zm0 3h7v1h-7z"/>
    </symbol>
    <symbol viewBox="0 0 40 40" id="icon-ok">
      <path fill="#bae0bd" d="M20 38.5C9.799 38.5 1.5 30.201 1.5 20S9.799 1.5 20 1.5 38.5 9.799 38.5 20 30.201 38.5 20 38.5z"/>
      <path fill="#5e9c76" d="M20 2c9.925 0 18 8.075 18 18s-8.075 18-18 18S2 29.925 2 20 10.075 2 20 2m0-1C9.507 1 1 9.507 1 20s8.507 19 19 19 19-8.507 19-19S30.493 1 20 1z"/>
      <path fill="none" stroke="#fff" stroke-miterlimit="10" stroke-width="2" d="M11 20l6 6 13-13"/>
    </symbol>
    <symbol viewBox="0 0 40 40" id="icon-opened-folder">
      <path fill="#dbb065" d="M1.5 35.5v-31h10.293l3 3H35.5v28z"/>
      <path fill="#967a44" d="M11.586 5l2.707 2.707.293.293H35v27H2V5h9.586M12 4H1v32h35V7H15l-3-3z"/>
      <path fill="#f5ce85" d="M1.599 35.5l3.818-21h10.734l3-2H39.41l-3.833 23z"/>
      <path fill="#967a44" d="M38.82 13l-3.667 22H2.198l3.636-20H16.303l.252-.168L19.303 13H38.82M40 12H19l-3 2H5L1 36h35l4-24z"/>
    </symbol>
    <symbol viewBox="0 0 40 40" id="icon-plus">
      <path fill="#bae0bd" d="M20 38.5C9.799 38.5 1.5 30.201 1.5 20S9.799 1.5 20 1.5 38.5 9.799 38.5 20 30.201 38.5 20 38.5z"/>
      <path fill="#5e9c76" d="M20 2c9.925 0 18 8.075 18 18s-8.075 18-18 18S2 29.925 2 20 10.075 2 20 2m0-1C9.507 1 1 9.507 1 20s8.507 19 19 19 19-8.507 19-19S30.493 1 20 1z"/>
      <path fill="#fff" d="M10 18h20v4H10z"/>
      <path fill="#fff" d="M22 10v20h-4V10z"/>
    </symbol>
    <symbol viewBox="0 0 40 40" id="icon-refresh">
      <path fill="#8bb7f0" stroke="#4e7ab5" stroke-miterlimit="10" d="M4.2 35.5l2.6-2.6-.3-.4c-3.2-3.4-5-7.9-5-12.6C1.5 9.8 9.8 1.5 20 1.5c.8 0 1.6.1 2.5.2v4c-.8-.1-1.7-.2-2.5-.2C12 5.5 5.5 12 5.5 20c0 3.6 1.3 7 3.8 9.7l.4.4 2.9-2.9v8.3H4.2z"/>
      <path fill="#8bb7f0" stroke="#4788c7" stroke-miterlimit="10" d="M20 38.5c-.8 0-1.6-.1-2.5-.2v-4c.8.1 1.7.2 2.5.2 8 0 14.5-6.5 14.5-14.5 0-3.6-1.3-7-3.8-9.7l-.4-.4-2.9 2.9V4.5h8.3l-2.6 2.6.3.4c3.2 3.4 5 7.9 5 12.6.1 10.1-8.2 18.4-18.4 18.4z"/>
    </symbol>
    <symbol viewBox="0 0 40 40" id="icon-restart">
      <path fill="#8bb7f0" d="M23.596 2.871v4.444c5.533 1.566 9.589 6.65 9.589 12.684 0 7.282-5.903 13.185-13.185 13.185S6.815 27.282 6.815 20c0-4.897 2.671-9.168 6.635-11.44l3.05 3.05V2.5H7.39l2.935 2.935C5.614 8.57 2.5 13.916 2.5 20c0 9.665 7.835 17.5 17.5 17.5S37.5 29.665 37.5 20c0-8.432-5.964-15.47-13.904-17.129z"/>
      <path fill="#4e7ab5" d="M20 37.986c-9.918 0-17.987-8.068-17.987-17.986A17.948 17.948 0 019.568 5.366L6.216 2.014h10.771v10.771l-3.614-3.613A12.732 12.732 0 007.302 20c0 7.002 5.696 12.698 12.698 12.698S32.698 27.002 32.698 20c0-5.654-3.797-10.678-9.235-12.216l-.354-.101V2.272l.586.122C31.976 4.125 37.987 11.529 37.987 20c0 9.918-8.069 17.986-17.987 17.986zm-11.435-35l2.524 2.525-.495.329C5.831 9.011 2.987 14.304 2.987 20c0 9.381 7.632 17.014 17.013 17.014S37.013 29.381 37.013 20c0-7.811-5.403-14.663-12.931-16.52v3.472c5.665 1.771 9.589 7.083 9.589 13.048 0 7.538-6.133 13.671-13.672 13.671S6.328 27.538 6.328 20c0-4.885 2.636-9.43 6.88-11.862l.323-.186 2.482 2.482V2.986H8.565z"/>
    </symbol>
    <symbol viewBox="0 0 40 40" id="icon-search">
      <path fill="#b6c9d6" stroke="#788b9c" stroke-miterlimit="10" d="M5.2 36.6c-.5 0-.9-.2-1.3-.5-.3-.3-.5-.8-.5-1.3s.2-.9.5-1.3l16.2-15.4 1.8 1.8L6.5 36.1c-.3.3-.8.5-1.3.5z"/>
      <path fill="#d1edff" stroke="#788b9c" stroke-miterlimit="10" d="M25.5 25.4c-6 0-10.9-4.9-10.9-10.9S19.5 3.6 25.5 3.6s10.9 4.9 10.9 10.9-4.9 10.9-10.9 10.9z"/>
    </symbol>
    <symbol viewBox="0 0 40 40" id="icon-settings">
      <path fill="#dcd5f2" d="M17.676 38.5l-1.125-4.501-.284-.076a14.432 14.432 0 01-6.473-3.724l-.208-.208-4.445 1.271-2.324-4.025 3.335-3.225-.076-.284c-.335-1.253-.505-2.508-.505-3.728s.17-2.475.504-3.729l.076-.284-3.335-3.225L5.14 8.737l4.445 1.271.208-.208a14.433 14.433 0 016.473-3.724L16.55 6l1.126-4.5h4.647l1.125 4.501.284.076a14.424 14.424 0 016.473 3.724l.208.208 4.445-1.271 2.324 4.025-3.335 3.225.076.284c.335 1.253.505 2.507.505 3.728 0 1.22-.17 2.475-.504 3.729l-.076.284 3.335 3.224-2.324 4.026-4.445-1.272-.208.208a14.428 14.428 0 01-6.473 3.724l-.284.076-1.125 4.501h-4.648zM20 12.036c-4.392 0-7.964 3.573-7.964 7.964s3.573 7.964 7.964 7.964 7.964-3.573 7.964-7.964-3.572-7.964-7.964-7.964z"/>
      <path fill="#8b75a1" d="M21.933 2l.959 3.837.143.571.569.152a13.937 13.937 0 016.248 3.594l.416.417.566-.162 3.787-1.083 1.934 3.349-2.843 2.749-.423.409.152.568c.324 1.211.488 2.422.488 3.599s-.164 2.388-.488 3.599l-.152.568.423.409 2.843 2.749-1.934 3.349-3.787-1.083-.566-.162-.416.417a13.931 13.931 0 01-6.248 3.594l-.569.152-.143.571L21.934 38h-3.867l-.959-3.837-.143-.571-.569-.152a13.931 13.931 0 01-6.248-3.594l-.416-.417-.566.162-3.787 1.083-1.934-3.349 2.843-2.749.423-.409-.152-.568c-.324-1.211-.488-2.422-.488-3.599s.164-2.388.488-3.599l.152-.568-.423-.409-2.843-2.749 1.934-3.349 3.787 1.083.566.162.416-.417a13.931 13.931 0 016.248-3.594l.569-.152.143-.571L18.066 2h3.867M20 28.464c4.667 0 8.464-3.797 8.464-8.464S24.667 11.536 20 11.536 11.536 15.333 11.536 20s3.797 8.464 8.464 8.464M22.714 1h-5.429l-1.149 4.594A14.91 14.91 0 009.44 9.447L4.903 8.149 2.189 12.85l3.405 3.292c-.33 1.233-.523 2.522-.523 3.858s.192 2.625.522 3.857l-3.405 3.292 2.714 4.701 4.538-1.298a14.913 14.913 0 006.697 3.853L17.286 39h5.429l1.148-4.594a14.913 14.913 0 006.697-3.853l4.538 1.298 2.714-4.701-3.405-3.292c.329-1.232.522-2.521.522-3.857s-.192-2.625-.522-3.857l3.405-3.292-2.714-4.701-4.538 1.298a14.91 14.91 0 00-6.696-3.853L22.714 1zM20 27.464a7.464 7.464 0 110-14.929 7.464 7.464 0 010 14.929z"/>
      <path fill="#eeebf7" d="M20 30.5c-5.79 0-10.5-4.71-10.5-10.5S14.21 9.5 20 9.5 30.5 14.21 30.5 20 25.79 30.5 20 30.5zm0-15c-2.481 0-4.5 2.019-4.5 4.5s2.019 4.5 4.5 4.5 4.5-2.019 4.5-4.5-2.019-4.5-4.5-4.5z"/>
      <path fill="#8b75a1" d="M20 10c5.514 0 10 4.486 10 10s-4.486 10-10 10-10-4.486-10-10 4.486-10 10-10m0 15c2.757 0 5-2.243 5-5s-2.243-5-5-5-5 2.243-5 5 2.243 5 5 5m0-16C13.925 9 9 13.925 9 20s4.925 11 11 11 11-4.925 11-11S26.075 9 20 9zm0 15a4 4 0 110-8 4 4 0 010 8z"/>
    </symbol>
    <symbol viewBox="0 0 40 40" id="icon-speech-bubble">
      <path fill="#8bb7f0" d="M4.893 36.471c.787-1.35 1.711-3 2.56-4.577l.199-.37-.329-.26C3.568 28.296 1.5 24.296 1.5 20 1.5 11.453 9.799 4.5 20 4.5S38.5 11.453 38.5 20 30.201 35.5 20 35.5c-2.173 0-4.339-.332-6.436-.985l-.163-.051-.16.06c-2.945 1.094-5.987 1.798-8.348 1.947z"/>
      <path fill="#4e7ab5" d="M20 5c9.925 0 18 6.729 18 15s-8.075 15-18 15c-2.123 0-4.239-.324-6.287-.962l-.326-.102-.32.119c-2.521.936-5.108 1.583-7.26 1.831a169.857 169.857 0 002.086-3.756l.398-.739-.658-.52C4 28.001 2 24.14 2 20c0-8.271 8.075-15 18-15m0-1C9.507 4 1 11.163 1 20c0 4.601 2.32 8.737 6.013 11.656A150.463 150.463 0 014 37c2.597 0 6.172-.803 9.415-2.007A22.113 22.113 0 0020 36c10.493 0 19-7.163 19-16S30.493 4 20 4z"/>
    </symbol>
    <symbol viewBox="0 0 40 40" id="icon-speech-bubble-2">
      <path fill="#8bb7f0" d="M4.893 36.471c.787-1.35 1.711-3 2.56-4.577l.199-.37-.329-.26C3.568 28.296 1.5 24.296 1.5 20 1.5 11.453 9.799 4.5 20 4.5S38.5 11.453 38.5 20 30.201 35.5 20 35.5c-2.173 0-4.339-.332-6.436-.985l-.163-.051-.16.06c-2.945 1.094-5.987 1.798-8.348 1.947z"/>
      <path fill="#4e7ab5" d="M20 5c9.925 0 18 6.729 18 15s-8.075 15-18 15c-2.123 0-4.239-.324-6.287-.962l-.326-.102-.32.119c-2.521.936-5.108 1.583-7.26 1.831a169.857 169.857 0 002.086-3.756l.398-.739-.658-.52C4 28.001 2 24.14 2 20c0-8.271 8.075-15 18-15m0-1C9.507 4 1 11.163 1 20c0 4.601 2.32 8.737 6.013 11.656A150.463 150.463 0 014 37c2.597 0 6.172-.803 9.415-2.007A22.113 22.113 0 0020 36c10.493 0 19-7.163 19-16S30.493 4 20 4z"/>
    </symbol>
    <symbol viewBox="0 0 40 40" id="icon-synchronize">
      <path fill="#f5ce85" d="M20 38.5C9.799 38.5 1.5 30.201 1.5 20S9.799 1.5 20 1.5 38.5 9.799 38.5 20 30.201 38.5 20 38.5z"/>
      <path fill="#967a44" d="M20 2c9.925 0 18 8.075 18 18s-8.075 18-18 18S2 29.925 2 20 10.075 2 20 2m0-1C9.507 1 1 9.507 1 20s8.507 19 19 19 19-8.507 19-19S30.493 1 20 1z"/>
      <path fill="#fff" d="M34.5 20h-10l5-5zm-29 0h10l-5 5z"/>
      <path fill="#fff" d="M20 11.75c2.275 0 4.331.931 5.824 2.426l1.945-1.945A10.948 10.948 0 0020 9C13.925 9 9 13.925 9 20c0 .467.039.924.095 1.375h2.779A8.31 8.31 0 0111.75 20c0-4.549 3.701-8.25 8.25-8.25zm10.905 6.875h-2.779c.076.448.124.906.124 1.375 0 4.549-3.701 8.25-8.25 8.25a8.207 8.207 0 01-5.824-2.426l-1.945 1.945A10.948 10.948 0 0020 31c6.075 0 11-4.925 11-11 0-.467-.039-.924-.095-1.375z"/>
    </symbol>
    <symbol viewBox="0 0 40 40" id="icon-toolbox">
      <path fill="none" stroke="#66798f" stroke-miterlimit="10" stroke-width="2" d="M14 11V8a2 2 0 012-2h8a2 2 0 012 2v3"/>
      <path fill="#ffeea3" d="M1.5 17.5h37v17h-37z"/>
      <path fill="#ba9b48" d="M38 18v16H2V18h36m1-1H1v18h38V17z"/>
      <path fill="#e1ebf2" d="M1.5 19.5V12c0-.827.673-1.5 1.5-1.5h34c.827 0 1.5.673 1.5 1.5v7.5h-37z"/>
      <path fill="#788b9c" d="M37 11c.551 0 1 .449 1 1v7H2v-7c0-.551.449-1 1-1h34m0-1H3a2 2 0 00-2 2v8h38v-8a2 2 0 00-2-2z"/>
      <path fill="#fff" d="M27.5 16.5h4v6h-4z"/>
      <path fill="#788b9c" d="M31 17v5h-3v-5h3m1-1h-5v7h5v-7z"/>
      <g>
        <path fill="#fff" d="M8.5 16.5h4v6h-4z"/>
        <path fill="#788b9c" d="M12 17v5H9v-5h3m1-1H8v7h5v-7z"/>
      </g>
    </symbol>
    <symbol viewBox="0 0 40 40" id="icon-twitter">
      <path fill="#c2e8ff" d="M12.951 35c-3.459 0-6.842-.822-9.895-2.394a16.04 16.04 0 009.795-3.443l1.106-.867-1.405-.026a7.297 7.297 0 01-6.524-4.306 8.301 8.301 0 002.885-.262l2.038-.557-2.071-.416c-3.154-.633-5.503-3.28-5.816-6.435.94.398 1.956.624 2.979.657l1.748.056-1.454-.972A7.282 7.282 0 013.09 9.964c0-1.048.225-2.081.654-3.025a22.715 22.715 0 0015.944 7.751l.661.033-.148-.645a7.431 7.431 0 01-.188-1.665c0-4.023 3.273-7.296 7.296-7.296 2.01 0 3.951.84 5.326 2.304l.189.202.272-.054a16.047 16.047 0 003.853-1.279 6.948 6.948 0 01-2.594 2.742l-.397.237.364.731.364-.016c.988-.121 1.94-.328 2.875-.628a15.246 15.246 0 01-2.744 2.547l-.218.157.011.27c.014.327.021.657.021.987 0 5.265-2.037 10.595-5.588 14.624C26.206 31.162 21.11 35 12.951 35z"/>
      <path fill="#7496c4" d="M27.309 5.617c1.873 0 3.681.782 4.961 2.146l.379.404.543-.107a16.754 16.754 0 002.364-.649c-.422.464-.91.864-1.459 1.192l-.789.508.427.833.318.621.693-.085a16.11 16.11 0 001.256-.203 14.82 14.82 0 01-1.478 1.22l-.436.315.023.538c.014.32.021.643.021.966 0 5.145-1.991 10.354-5.463 14.294-2.77 3.143-7.745 6.889-15.718 6.889-2.727 0-5.406-.524-7.906-1.533a16.51 16.51 0 008.115-3.411l2.213-1.735-2.811-.052a6.8 6.8 0 01-5.693-3.277 8.772 8.772 0 002.176-.308l4.073-1.114-4.14-.831c-2.663-.534-4.71-2.61-5.287-5.182.755.235 1.543.37 2.335.395l3.495.113-2.908-1.944A6.788 6.788 0 013.59 9.964c0-.713.112-1.418.328-2.089a23.202 23.202 0 0015.746 7.314l1.322.066-.297-1.29a6.942 6.942 0 01-.176-1.552c-.001-3.747 3.048-6.796 6.796-6.796m0-1a7.797 7.797 0 00-7.796 7.796c0 .611.07 1.206.201 1.776-6.48-.324-12.224-3.429-16.07-8.145a7.767 7.767 0 00-1.054 3.92 7.793 7.793 0 003.467 6.488 7.772 7.772 0 01-3.531-.975v.098a7.798 7.798 0 006.254 7.644 7.774 7.774 0 01-3.521.135 7.806 7.806 0 007.283 5.415 15.635 15.635 0 01-9.682 3.338c-.629 0-1.249-.036-1.86-.109A22.066 22.066 0 0012.951 35.5c14.34 0 22.181-11.88 22.181-22.182 0-.337-.008-.674-.022-1.009A15.864 15.864 0 0039 8.273a15.167 15.167 0 01-4.375 1.215l-.014-.027c1.61-.964 2.756-2.453 3.339-4.274a15.626 15.626 0 01-4.951 1.892 7.786 7.786 0 00-5.69-2.462z"/>
    </symbol>
    <symbol viewBox="0 0 40 40" id="icon-upload-2">
      <path fill="#c2e8ff" d="M6.5 28.5c-3.309 0-6-2.691-6-6s2.691-6 6-6a6.03 6.03 0 011.529.204l.494.13.119-.497a4.987 4.987 0 013.53-3.652l.332-.092.034-.341A7.47 7.47 0 0120 5.5a7.457 7.457 0 016.709 4.165l.204.408.425-.165A5.983 5.983 0 0129.5 9.5c3.309 0 6 2.691 6 6 0 .271-.024.556-.075.896l-.058.391.366.147a5.973 5.973 0 013.767 5.565c0 3.309-2.691 6-6 6h-27z"/>
      <path fill="#7496c4" d="M20 6a6.962 6.962 0 016.262 3.888l.406.816.85-.329A5.47 5.47 0 0129.5 10c3.033 0 5.5 2.467 5.5 5.5 0 .247-.022.508-.069.822l-.117.782.734.295A5.474 5.474 0 0139 22.5c0 3.033-2.467 5.5-5.5 5.5h-27C3.467 28 1 25.533 1 22.5S3.467 17 6.5 17c.455 0 .927.063 1.401.188l.99.26.237-.995a4.491 4.491 0 013.177-3.287l.662-.182.068-.683A6.972 6.972 0 0120 6m0-1a8.001 8.001 0 00-7.96 7.202 5.502 5.502 0 00-3.885 4.019A6.497 6.497 0 006.5 16a6.5 6.5 0 100 13h27a6.5 6.5 0 002.42-12.53c.048-.317.08-.64.08-.97A6.5 6.5 0 0029.5 9c-.827 0-1.615.161-2.343.442A7.993 7.993 0 0020 5z"/>
      <path fill="#c2e8ff" d="M17 27h6v2h-6z"/>
      <path fill="#4e7ab5" d="M19 21v14h2V21h5l-6-6-6 6z"/>
    </symbol>
    <symbol viewBox="0 0 40 40" id="icon-user-male">
      <path fill="#e8d47b" d="M30.5 26.5c-1.654 0-3-1.346-3-3s1.346-3 3-3c2.49 0 3 .732 3 1.833 0 1.819-1.455 4.167-3 4.167z"/>
      <path fill="#ba9b48" d="M30.5 21c2.5 0 2.5.739 2.5 1.333C33 23.848 31.707 26 30.5 26c-1.379 0-2.5-1.121-2.5-2.5s1.121-2.5 2.5-2.5m0-1a3.5 3.5 0 100 7c1.933 0 3.5-2.734 3.5-4.667C34 20.4 32.433 20 30.5 20z"/>
      <path fill="#e8d47b" d="M9.5 26.5c-1.545 0-3-2.348-3-4.167 0-1.101.51-1.833 3-1.833 1.654 0 3 1.346 3 3s-1.346 3-3 3z"/>
      <path fill="#ba9b48" d="M9.5 21c1.379 0 2.5 1.121 2.5 2.5S10.879 26 9.5 26C8.293 26 7 23.848 7 22.333 7 21.739 7 21 9.5 21m0-1c-1.933 0-3.5.4-3.5 2.333C6 24.266 7.567 27 9.5 27a3.5 3.5 0 100-7z"/>
      <path fill="#ffeea3" d="M20 38.5a4.44 4.44 0 01-3.316-1.483l-.084-.092-.118-.042A10.517 10.517 0 019.5 27V12.381a4.747 4.747 0 014.742-4.742h11.516a4.747 4.747 0 014.742 4.742V27c0 4.424-2.806 8.396-6.982 9.883l-.118.042-.084.092A4.44 4.44 0 0120 38.5z"/>
      <path fill="#ba9b48" d="M25.758 8.139A4.247 4.247 0 0130 12.381V27c0 4.213-2.672 7.995-6.65 9.412l-.236.084-.168.185a3.947 3.947 0 01-5.892-.001l-.168-.185-.236-.084A10.014 10.014 0 0110 27V12.381a4.247 4.247 0 014.242-4.242h11.516m0-1H14.242A5.242 5.242 0 009 12.381V27c0 4.78 3.055 8.837 7.314 10.354C17.229 38.358 18.534 39 20 39s2.771-.642 3.686-1.647C27.945 35.837 31 31.78 31 27V12.381a5.242 5.242 0 00-5.242-5.242z"/>
      <path fill="#b0c1d4" d="M30.5 24.5v-6.69c0-5.667-4.289-7.265-4.332-7.28l-.323-.115-.225.26c-.033.038-3.373 3.826-9.692 3.826-4.146 0-6.429 2.102-6.429 5.918V24.5h-.163C8.773 23.099 6.5 17.173 6.5 12.874 6.5 5.755 12.855 1.5 19 1.5c4.07 0 6.221 2.04 7.14 3.257l.15.198h.249c1.806 0 6.961 1.52 6.961 8.271 0 3.381-2.291 9.772-2.847 11.273H30.5z"/>
      <path fill="#66798f" d="M19 2c3.854 0 5.878 1.916 6.741 3.058l.3.397h.498c1.676 0 6.461 1.428 6.461 7.772 0 2.34-1.141 6.202-2 8.777V17.81c0-6.015-4.473-7.683-4.663-7.751l-.646-.227-.448.515c-.13.149-3.246 3.653-9.315 3.653C11.461 14 9 16.279 9 20.418v1.756c-.856-2.452-2-6.291-2-9.301C7 7.602 11.206 2 19 2m0-1C10.673 1 6 7.13 6 12.874 6 17.917 9 25 9 25h1v-4.582C10 16.154 12.892 15 15.928 15 22.575 15 26 11 26 11s4 1.43 4 6.81V25h1s3-7.808 3-11.774c0-6.983-5.357-8.772-7.461-8.772C26.007 3.752 23.794 1 19 1z"/>
      <path fill="#36404d" d="M25.5 23a1.5 1.5 0 100 3 1.5 1.5 0 100-3zm-11 0a1.5 1.5 0 100 3 1.5 1.5 0 100-3z"/>
    </symbol>
</svg>